<?xml version="1.0" standalone="no"?>
<!DOCTYPE svg PUBLIC "-//W3C//DTD SVG 20010904//EN"
 "http://www.w3.org/TR/2001/REC-SVG-20010904/DTD/svg10.dtd">
<svg version="1.0" xmlns="http://www.w3.org/2000/svg"
 width="700.000000pt" height="700.000000pt" viewBox="0 0 700.000000 700.000000"
 preserveAspectRatio="xMidYMid meet">
<metadata>
Created by potrace 1.11, written by Peter Selinger 2001-2013
</metadata>
<g transform="translate(0.000000,700.000000) scale(0.100000,-0.100000)"
fill="#000000" stroke="none">
<path d="M1040 6333 c-61 -22 -142 -104 -163 -167 -12 -36 -17 -84 -17 -173
l0 -123 -189 0 c-160 0 -199 -3 -253 -20 -112 -35 -194 -107 -246 -217 l-27
-58 0 -2100 0 -2100 29 -60 c60 -123 176 -206 315 -225 91 -13 5932 -13 6033
-1 174 22 316 154 348 322 6 33 10 799 10 2073 0 1784 -2 2029 -15 2081 -33
127 -104 212 -223 268 l-67 32 -2127 3 -2126 2 -4 133 c-3 107 -7 141 -24 178
-28 60 -84 115 -148 145 l-51 24 -505 -1 c-433 0 -511 -3 -550 -16z m2671
-1317 c427 -69 815 -313 1042 -654 71 -106 167 -299 202 -405 58 -175 69 -254
69 -492 1 -191 -2 -233 -21 -318 -115 -506 -443 -910 -905 -1114 -210 -92
-381 -127 -628 -127 -330 0 -596 79 -862 257 -181 120 -336 272 -443 432 -270
407 -337 915 -180 1377 116 340 360 646 662 829 194 118 375 183 623 222 65
11 362 6 441 -7z"/>
<path d="M3360 4629 c-331 -30 -627 -198 -835 -474 -62 -81 -149 -261 -179
-366 -120 -424 0 -861 320 -1170 364 -351 938 -422 1379 -171 103 59 179 118
267 211 291 302 396 722 282 1126 -53 188 -144 344 -289 494 -198 205 -447
323 -740 351 -60 5 -112 9 -115 9 -3 -1 -43 -5 -90 -10z"/>
</g>
</svg>
