<?xml version="1.0" standalone="no"?>
<!DOCTYPE svg PUBLIC "-//W3C//DTD SVG 20010904//EN"
 "http://www.w3.org/TR/2001/REC-SVG-20010904/DTD/svg10.dtd">
<svg version="1.0" xmlns="http://www.w3.org/2000/svg"
 width="947.000000pt" height="947.000000pt" viewBox="0 0 947.000000 947.000000"
 preserveAspectRatio="xMidYMid meet">
<metadata>
Created by potrace 1.11, written by Peter Selinger 2001-2013
</metadata>
<g transform="translate(0.000000,947.000000) scale(0.100000,-0.100000)"
fill="#000000" stroke="none">
<path d="M4595 9163 c-1073 -36 -2077 -449 -2872 -1181 -619 -571 -1075 -1336
-1283 -2157 -165 -649 -180 -1327 -45 -1990 229 -1124 902 -2131 1855 -2775
597 -403 1252 -647 1975 -736 176 -22 673 -30 858 -15 752 63 1413 285 2048
687 499 316 964 775 1306 1289 288 431 515 964 627 1465 81 365 101 559 101
980 0 368 -9 484 -60 775 -205 1171 -887 2223 -1875 2894 -583 396 -1231 641
-1934 731 -141 18 -529 43 -596 38 -14 -1 -61 -3 -105 -5z m421 -1444 c396
-38 733 -137 1094 -319 429 -218 825 -566 1102 -970 731 -1066 700 -2473 -77
-3505 -485 -644 -1193 -1058 -2006 -1172 -156 -22 -604 -25 -749 -4 -712 98
-1319 400 -1795 892 -476 492 -768 1120 -834 1793 -14 141 -14 451 0 592 105
1066 784 2010 1760 2444 295 132 678 231 979 253 109 8 426 6 526 -4z"/>
<path d="M4495 7553 c-22 -2 -101 -12 -176 -23 -1171 -173 -2113 -1064 -2354
-2227 -45 -216 -58 -373 -52 -638 7 -295 33 -478 107 -731 186 -639 606 -1203
1175 -1576 212 -140 509 -276 760 -348 275 -80 465 -105 790 -104 299 0 438
17 699 83 1129 289 1963 1242 2108 2411 22 174 16 565 -11 739 -197 1286
-1204 2258 -2491 2405 -122 14 -438 19 -555 9z m561 -538 c60 -9 166 -30 237
-46 l127 -31 -2 -445 -3 -445 -130 -33 c-172 -44 -284 -84 -433 -156 -200 -95
-368 -204 -519 -336 -40 -34 -67 -52 -75 -47 -13 8 -1160 854 -1168 861 -6 6
99 104 198 185 337 277 799 465 1242 508 128 12 392 4 526 -15z m-1595 -1351
c316 -234 575 -430 577 -435 2 -5 -12 -28 -31 -51 -90 -111 -223 -339 -290
-495 l-26 -63 -631 0 -630 0 0 98 c0 363 86 722 250 1047 62 124 186 325 200
325 4 0 265 -192 581 -426z m2878 -1599 c186 -49 327 -201 362 -390 23 -121
-6 -272 -76 -391 -42 -73 -149 -173 -231 -216 -96 -51 -171 -69 -279 -69 -473
-1 -678 560 -331 906 77 76 174 134 267 159 70 19 219 20 288 1z"/>
</g>
</svg>
